<svg viewBox="0 0 720 1000" xmlns="http://www.w3.org/2000/svg">
<defs>
  <clipPath id="cardClip"><rect x="20" y="20" width="680" height="960" rx="40"/></clipPath>
  <radialGradient id="bd" cx="50%" cy="42%" r="75%"><stop offset="0" stop-color="#14454d"/><stop offset="70%" stop-color="#0e3942"/><stop offset="100%" stop-color="#0a2c33"/></radialGradient>
  <radialGradient id="vg" cx="50%" cy="44%" r="72%"><stop offset="55%" stop-color="#000" stop-opacity="0"/><stop offset="100%" stop-color="#000" stop-opacity="0.42"/></radialGradient>
  <linearGradient id="pgB" x1="0" y1="0" x2="0" y2="1"><stop offset="0" stop-color="#f6bd4f"/><stop offset="1" stop-color="#e7a233"/></linearGradient>
  <g id="flb">
    <path d="M16,150 C16,75 75,16 150,16" fill="none" stroke="#e3a83c" stroke-width="5"/>
    <path d="M30,150 C30,90 90,30 150,30" fill="none" stroke="#3fb6bb" stroke-width="3"/>
    <path d="M52,52 C92,40 120,66 110,108 C86,92 60,86 52,52 Z" fill="#2f8f96"/>
    <path d="M62,62 C92,54 112,72 104,100 C84,88 70,80 62,62 Z" fill="#e3a83c"/>
    <path d="M120,120 C150,116 170,134 164,158 C148,150 132,140 120,120 Z" fill="#2f8f96" transform="rotate(-12 140 140)"/>
    <circle cx="34" cy="128" r="4.5" fill="#e3a83c"/><circle cx="128" cy="34" r="4.5" fill="#e3a83c"/>
    <circle cx="150" cy="16" r="4" fill="#3fb6bb"/><circle cx="16" cy="150" r="4" fill="#3fb6bb"/>
  </g>
</defs>

<rect x="20" y="20" width="680" height="960" rx="40" fill="url(#bd)"/>
<g clip-path="url(#cardClip)" opacity="0.6"><rect x="66" y="189.1" width="588" height="5" rx="2" fill="#0a2e34"/><g transform="translate(72.9,109.7)"><rect width="15.4" height="79.4" rx="2" fill="#1a565d"/><rect y="12.7" width="15.4" height="3" fill="#ffffff" opacity="0.05"/></g><g transform="translate(92.3,98.9) rotate(1.7 16.5 90.3)"><rect width="33.1" height="90.3" rx="2" fill="#1a565d"/><rect y="14.4" width="33.1" height="3" fill="#ffffff" opacity="0.05"/></g><g transform="translate(131.4,118.7)"><rect width="30.8" height="70.4" rx="2" fill="#15474e"/><rect y="11.3" width="30.8" height="3" fill="#ffffff" opacity="0.05"/></g><g transform="translate(166.8,133.2)"><rect width="33.7" height="55.9" rx="2" fill="#1a565d"/><rect y="8.9" width="33.7" height="3" fill="#ffffff" opacity="0.05"/></g><g transform="translate(205.6,105.1)"><rect width="17.1" height="84.1" rx="2" fill="#124149"/></g><g transform="translate(227.8,94.0)"><rect width="31.9" height="95.1" rx="2" fill="#164b52"/></g><g transform="translate(262.6,116.2)"><rect width="20.2" height="73.0" rx="2" fill="#164b52"/></g><g transform="translate(287.4,94.3)"><rect width="20.4" height="94.8" rx="2" fill="#1a565d"/></g><g transform="translate(310.4,95.0)"><rect width="27.6" height="94.2" rx="2" fill="#15474e"/></g><g transform="translate(342.1,124.9)"><rect width="29.0" height="64.3" rx="2" fill="#15474e"/><rect y="10.3" width="29.0" height="3" fill="#ffffff" opacity="0.05"/></g><g transform="translate(373.9,140.4)"><rect width="27.0" height="48.8" rx="2" fill="#164b52"/></g><g transform="translate(403.6,104.2)"><rect width="17.5" height="85.0" rx="2" fill="#1a565d"/><rect y="13.6" width="17.5" height="3" fill="#ffffff" opacity="0.05"/></g><g transform="translate(426.4,98.1)"><rect width="28.6" height="91.0" rx="2" fill="#15474e"/><rect y="14.6" width="28.6" height="3" fill="#ffffff" opacity="0.05"/></g><g transform="translate(459.7,132.9)"><rect width="26.6" height="56.2" rx="2" fill="#1a565d"/><rect y="9.0" width="26.6" height="3" fill="#ffffff" opacity="0.05"/></g><g transform="translate(490.5,143.9)"><rect width="33.9" height="45.3" rx="2" fill="#124149"/><rect y="7.2" width="33.9" height="3" fill="#ffffff" opacity="0.05"/></g><g transform="translate(530.3,107.1)"><rect width="25.6" height="82.1" rx="2" fill="#1d5f67"/></g><g transform="translate(558.6,101.2)"><rect width="15.2" height="87.9" rx="2" fill="#124149"/></g><g transform="translate(578.7,111.9)"><rect width="26.0" height="77.3" rx="2" fill="#1d5f67"/><rect y="12.4" width="26.0" height="3" fill="#ffffff" opacity="0.05"/></g><g transform="translate(610.6,140.2)"><rect width="28.4" height="49.0" rx="2" fill="#164b52"/><rect y="7.8" width="28.4" height="3" fill="#ffffff" opacity="0.05"/></g><rect x="66" y="306.3" width="588" height="5" rx="2" fill="#0a2e34"/><g transform="translate(72.6,261.6)"><rect width="19.4" height="44.7" rx="2" fill="#124149"/><rect y="7.1" width="19.4" height="3" fill="#ffffff" opacity="0.05"/></g><g transform="translate(96.4,254.1)"><rect width="32.2" height="52.2" rx="2" fill="#124149"/><rect y="8.4" width="32.2" height="3" fill="#ffffff" opacity="0.05"/></g><g transform="translate(132.6,228.6)"><rect width="23.9" height="77.7" rx="2" fill="#15474e"/><rect y="12.4" width="23.9" height="3" fill="#ffffff" opacity="0.05"/></g><g transform="translate(160.9,234.5)"><rect width="22.2" height="71.8" rx="2" fill="#15474e"/></g><g transform="translate(188.8,218.1)"><rect width="18.9" height="88.2" rx="2" fill="#1a565d"/><rect y="14.1" width="18.9" height="3" fill="#ffffff" opacity="0.05"/></g><g transform="translate(211.6,232.3)"><rect width="23.2" height="74.0" rx="2" fill="#15474e"/><rect y="11.8" width="23.2" height="3" fill="#ffffff" opacity="0.05"/></g><g transform="translate(240.1,221.8)"><rect width="19.9" height="84.5" rx="2" fill="#1d5f67"/><rect y="13.5" width="19.9" height="3" fill="#ffffff" opacity="0.05"/></g><g transform="translate(264.6,225.2)"><rect width="30.8" height="81.1" rx="2" fill="#15474e"/></g><g transform="translate(298.0,217.1)"><rect width="29.7" height="89.2" rx="2" fill="#124149"/></g><g transform="translate(332.4,246.2) rotate(-3.2 15.9 60.1)"><rect width="31.9" height="60.1" rx="2" fill="#164b52"/></g><g transform="translate(370.1,253.1)"><rect width="17.8" height="53.2" rx="2" fill="#1a565d"/><rect y="8.5" width="17.8" height="3" fill="#ffffff" opacity="0.05"/></g><g transform="translate(390.7,261.2)"><rect width="25.9" height="45.1" rx="2" fill="#1a565d"/></g><g transform="translate(420.1,249.2)"><rect width="15.4" height="57.1" rx="2" fill="#1d5f67"/><rect y="9.1" width="15.4" height="3" fill="#ffffff" opacity="0.05"/></g><g transform="translate(439.3,244.0)"><rect width="23.0" height="62.3" rx="2" fill="#164b52"/><rect y="10.0" width="23.0" height="3" fill="#ffffff" opacity="0.05"/></g><g transform="translate(466.2,216.0)"><rect width="21.7" height="90.3" rx="2" fill="#1a565d"/></g><g transform="translate(490.8,255.1)"><rect width="25.5" height="51.2" rx="2" fill="#1a565d"/></g><g transform="translate(519.0,261.8)"><rect width="21.4" height="44.5" rx="2" fill="#1a565d"/></g><g transform="translate(544.9,250.6)"><rect width="32.9" height="55.7" rx="2" fill="#124149"/><rect y="8.9" width="32.9" height="3" fill="#ffffff" opacity="0.05"/></g><g transform="translate(581.3,259.5) rotate(-2.5 10.1 46.8)"><rect width="20.3" height="46.8" rx="2" fill="#124149"/></g><g transform="translate(607.3,217.5)"><rect width="17.7" height="88.8" rx="2" fill="#124149"/><rect y="14.2" width="17.7" height="3" fill="#ffffff" opacity="0.05"/></g><g transform="translate(630.6,221.4)"><rect width="29.7" height="84.9" rx="2" fill="#15474e"/></g><rect x="66" y="423.4" width="588" height="5" rx="2" fill="#0a2e34"/><g transform="translate(77.7,351.8)"><rect width="16.0" height="71.7" rx="2" fill="#124149"/><rect y="11.5" width="16.0" height="3" fill="#ffffff" opacity="0.05"/></g><g transform="translate(97.0,346.8)"><rect width="24.4" height="76.6" rx="2" fill="#164b52"/></g><g transform="translate(126.9,341.8)"><rect width="14.5" height="81.6" rx="2" fill="#1a565d"/></g><g transform="translate(143.5,334.5)"><rect width="25.1" height="88.9" rx="2" fill="#1a565d"/></g><g transform="translate(172.2,362.2)"><rect width="14.1" height="61.2" rx="2" fill="#15474e"/><rect y="9.8" width="14.1" height="3" fill="#ffffff" opacity="0.05"/></g><g transform="translate(189.4,325.1)"><rect width="16.8" height="98.3" rx="2" fill="#15474e"/></g><g transform="translate(211.4,349.6)"><rect width="16.7" height="73.9" rx="2" fill="#1a565d"/></g><g transform="translate(231.4,375.7)"><rect width="19.6" height="47.7" rx="2" fill="#164b52"/></g><g transform="translate(255.0,328.5)"><rect width="20.7" height="94.9" rx="2" fill="#1d5f67"/></g><g transform="translate(279.0,350.8) rotate(-0.6 7.4 72.6)"><rect width="14.7" height="72.6" rx="2" fill="#1d5f67"/><rect y="11.6" width="14.7" height="3" fill="#ffffff" opacity="0.05"/></g><g transform="translate(296.5,376.3)"><rect width="26.4" height="47.2" rx="2" fill="#1a565d"/></g><g transform="translate(326.2,341.8)"><rect width="17.7" height="81.7" rx="2" fill="#1a565d"/></g><g transform="translate(346.3,343.0)"><rect width="19.2" height="80.4" rx="2" fill="#124149"/><rect y="12.9" width="19.2" height="3" fill="#ffffff" opacity="0.05"/></g><g transform="translate(371.3,351.2)"><rect width="16.1" height="72.3" rx="2" fill="#1a565d"/><rect y="11.6" width="16.1" height="3" fill="#ffffff" opacity="0.05"/></g><g transform="translate(390.7,347.6)"><rect width="33.9" height="75.8" rx="2" fill="#164b52"/></g><g transform="translate(427.0,340.2)"><rect width="20.7" height="83.2" rx="2" fill="#1a565d"/><rect y="13.3" width="20.7" height="3" fill="#ffffff" opacity="0.05"/></g><g transform="translate(452.8,366.8)"><rect width="21.1" height="56.6" rx="2" fill="#1d5f67"/></g><g transform="translate(479.4,369.1)"><rect width="23.6" height="54.3" rx="2" fill="#1a565d"/></g><g transform="translate(507.0,336.0)"><rect width="24.9" height="87.4" rx="2" fill="#15474e"/></g><g transform="translate(535.4,345.5)"><rect width="31.4" height="78.0" rx="2" fill="#1a565d"/></g><g transform="translate(570.0,332.5)"><rect width="26.1" height="90.9" rx="2" fill="#164b52"/><rect y="14.6" width="26.1" height="3" fill="#ffffff" opacity="0.05"/></g><g transform="translate(598.2,376.3)"><rect width="20.6" height="47.1" rx="2" fill="#1a565d"/></g><g transform="translate(621.4,334.2)"><rect width="32.6" height="89.2" rx="2" fill="#1a565d"/><rect y="14.3" width="32.6" height="3" fill="#ffffff" opacity="0.05"/></g><rect x="66" y="540.6" width="588" height="5" rx="2" fill="#0a2e34"/><g transform="translate(76.1,495.5)"><rect width="32.2" height="45.0" rx="2" fill="#15474e"/><rect y="7.2" width="32.2" height="3" fill="#ffffff" opacity="0.05"/></g><g transform="translate(111.6,468.5)"><rect width="21.6" height="72.1" rx="2" fill="#124149"/></g><g transform="translate(136.9,457.7)"><rect width="14.7" height="82.9" rx="2" fill="#124149"/></g><g transform="translate(156.1,443.0)"><rect width="32.7" height="97.6" rx="2" fill="#164b52"/><rect y="15.6" width="32.7" height="3" fill="#ffffff" opacity="0.05"/></g><g transform="translate(191.5,461.5)"><rect width="24.8" height="79.1" rx="2" fill="#124149"/></g><g transform="translate(221.8,482.3)"><rect width="33.4" height="58.3" rx="2" fill="#124149"/></g><g transform="translate(257.7,484.3)"><rect width="32.1" height="56.3" rx="2" fill="#164b52"/></g><g transform="translate(293.5,458.7)"><rect width="33.4" height="81.9" rx="2" fill="#164b52"/><rect y="13.1" width="33.4" height="3" fill="#ffffff" opacity="0.05"/></g><g transform="translate(330.0,492.8)"><rect width="23.4" height="47.8" rx="2" fill="#1a565d"/><rect y="7.6" width="23.4" height="3" fill="#ffffff" opacity="0.05"/></g><g transform="translate(359.3,473.7)"><rect width="21.8" height="66.8" rx="2" fill="#15474e"/></g><g transform="translate(384.1,443.7)"><rect width="14.5" height="96.9" rx="2" fill="#164b52"/><rect y="15.5" width="14.5" height="3" fill="#ffffff" opacity="0.05"/></g><g transform="translate(403.3,488.0)"><rect width="23.0" height="52.6" rx="2" fill="#164b52"/><rect y="8.4" width="23.0" height="3" fill="#ffffff" opacity="0.05"/></g><g transform="translate(428.8,492.9)"><rect width="14.0" height="47.7" rx="2" fill="#1d5f67"/></g><g transform="translate(445.1,454.9)"><rect width="32.7" height="85.6" rx="2" fill="#15474e"/></g><g transform="translate(481.2,452.1)"><rect width="31.5" height="88.5" rx="2" fill="#164b52"/></g><g transform="translate(514.7,459.2)"><rect width="23.1" height="81.4" rx="2" fill="#1d5f67"/><rect y="13.0" width="23.1" height="3" fill="#ffffff" opacity="0.05"/></g><g transform="translate(541.4,472.9)"><rect width="23.5" height="67.6" rx="2" fill="#15474e"/><rect y="10.8" width="23.5" height="3" fill="#ffffff" opacity="0.05"/></g><g transform="translate(570.7,470.3)"><rect width="26.7" height="70.2" rx="2" fill="#1a565d"/></g><g transform="translate(599.5,474.0)"><rect width="14.2" height="66.6" rx="2" fill="#15474e"/></g><g transform="translate(617.8,466.3)"><rect width="21.4" height="74.3" rx="2" fill="#15474e"/></g><rect x="66" y="657.7" width="588" height="5" rx="2" fill="#0a2e34"/><g transform="translate(78.0,608.8)"><rect width="21.3" height="48.9" rx="2" fill="#124149"/><rect y="7.8" width="21.3" height="3" fill="#ffffff" opacity="0.05"/></g><g transform="translate(104.8,594.5)"><rect width="14.4" height="63.2" rx="2" fill="#15474e"/><rect y="10.1" width="14.4" height="3" fill="#ffffff" opacity="0.05"/></g><g transform="translate(123.6,608.6)"><rect width="31.9" height="49.1" rx="2" fill="#164b52"/></g><g transform="translate(157.7,580.7)"><rect width="14.9" height="77.0" rx="2" fill="#164b52"/><rect y="12.3" width="14.9" height="3" fill="#ffffff" opacity="0.05"/></g><g transform="translate(175.4,604.1)"><rect width="27.5" height="53.6" rx="2" fill="#164b52"/></g><g transform="translate(205.0,579.8)"><rect width="31.3" height="77.9" rx="2" fill="#15474e"/><rect y="12.5" width="31.3" height="3" fill="#ffffff" opacity="0.05"/></g><g transform="translate(240.7,570.3)"><rect width="22.2" height="87.4" rx="2" fill="#124149"/><rect y="14.0" width="22.2" height="3" fill="#ffffff" opacity="0.05"/></g><g transform="translate(268.6,608.5)"><rect width="18.4" height="49.2" rx="2" fill="#15474e"/><rect y="7.9" width="18.4" height="3" fill="#ffffff" opacity="0.05"/></g><g transform="translate(292.3,595.9)"><rect width="19.5" height="61.8" rx="2" fill="#1a565d"/></g><g transform="translate(316.9,601.3)"><rect width="27.1" height="56.4" rx="2" fill="#124149"/></g><g transform="translate(347.4,583.5)"><rect width="31.1" height="74.2" rx="2" fill="#124149"/><rect y="11.9" width="31.1" height="3" fill="#ffffff" opacity="0.05"/></g><g transform="translate(381.4,571.1)"><rect width="19.2" height="86.6" rx="2" fill="#164b52"/><rect y="13.9" width="19.2" height="3" fill="#ffffff" opacity="0.05"/></g><g transform="translate(406.3,603.9)"><rect width="25.1" height="53.8" rx="2" fill="#164b52"/><rect y="8.6" width="25.1" height="3" fill="#ffffff" opacity="0.05"/></g><g transform="translate(434.8,601.0)"><rect width="21.9" height="56.7" rx="2" fill="#1d5f67"/><rect y="9.1" width="21.9" height="3" fill="#ffffff" opacity="0.05"/></g><g transform="translate(458.8,577.2)"><rect width="23.4" height="80.6" rx="2" fill="#124149"/><rect y="12.9" width="23.4" height="3" fill="#ffffff" opacity="0.05"/></g><g transform="translate(485.4,579.4)"><rect width="25.2" height="78.3" rx="2" fill="#15474e"/></g><g transform="translate(515.0,608.3)"><rect width="24.4" height="49.4" rx="2" fill="#124149"/></g><g transform="translate(544.8,584.6)"><rect width="24.1" height="73.1" rx="2" fill="#1a565d"/></g><g transform="translate(574.5,604.8)"><rect width="26.9" height="52.9" rx="2" fill="#124149"/><rect y="8.5" width="26.9" height="3" fill="#ffffff" opacity="0.05"/></g><g transform="translate(604.1,573.1)"><rect width="19.1" height="84.6" rx="2" fill="#1d5f67"/></g><g transform="translate(627.7,580.5)"><rect width="26.0" height="77.2" rx="2" fill="#15474e"/><rect y="12.4" width="26.0" height="3" fill="#ffffff" opacity="0.05"/></g><rect x="66" y="774.9" width="588" height="5" rx="2" fill="#0a2e34"/><g transform="translate(81.9,716.7)"><rect width="15.1" height="58.1" rx="2" fill="#124149"/></g><g transform="translate(99.9,687.8)"><rect width="14.7" height="87.1" rx="2" fill="#124149"/><rect y="13.9" width="14.7" height="3" fill="#ffffff" opacity="0.05"/></g><g transform="translate(120.0,725.1)"><rect width="23.0" height="49.8" rx="2" fill="#164b52"/><rect y="8.0" width="23.0" height="3" fill="#ffffff" opacity="0.05"/></g><g transform="translate(147.8,724.3) rotate(2.9 15.3 50.5)"><rect width="30.5" height="50.5" rx="2" fill="#1a565d"/></g><g transform="translate(184.3,675.8)"><rect width="17.6" height="99.0" rx="2" fill="#1a565d"/><rect y="15.8" width="17.6" height="3" fill="#ffffff" opacity="0.05"/></g><g transform="translate(205.0,709.9)"><rect width="30.1" height="64.9" rx="2" fill="#15474e"/><rect y="10.4" width="30.1" height="3" fill="#ffffff" opacity="0.05"/></g><g transform="translate(239.1,686.9)"><rect width="27.5" height="87.9" rx="2" fill="#164b52"/></g><g transform="translate(270.4,699.3)"><rect width="32.8" height="75.6" rx="2" fill="#1a565d"/></g><g transform="translate(308.5,706.2) rotate(-3.7 11.5 68.7)"><rect width="23.0" height="68.7" rx="2" fill="#1a565d"/><rect y="11.0" width="23.0" height="3" fill="#ffffff" opacity="0.05"/></g><g transform="translate(336.9,691.3) rotate(2.8 12.7 83.6)"><rect width="25.4" height="83.6" rx="2" fill="#164b52"/></g><g transform="translate(364.6,675.8)"><rect width="14.5" height="99.1" rx="2" fill="#164b52"/></g><g transform="translate(381.3,684.7) rotate(3.5 14.6 90.2)"><rect width="29.3" height="90.2" rx="2" fill="#164b52"/><rect y="14.4" width="29.3" height="3" fill="#ffffff" opacity="0.05"/></g><g transform="translate(415.6,682.7)"><rect width="32.5" height="92.1" rx="2" fill="#164b52"/><rect y="14.7" width="32.5" height="3" fill="#ffffff" opacity="0.05"/></g><g transform="translate(450.3,696.4)"><rect width="32.1" height="78.4" rx="2" fill="#1d5f67"/></g><g transform="translate(485.4,725.6)"><rect width="17.6" height="49.3" rx="2" fill="#164b52"/></g><g transform="translate(506.3,692.8)"><rect width="17.0" height="82.1" rx="2" fill="#164b52"/></g><g transform="translate(528.2,720.9)"><rect width="30.1" height="53.9" rx="2" fill="#124149"/><rect y="8.6" width="30.1" height="3" fill="#ffffff" opacity="0.05"/></g><g transform="translate(563.7,722.3)"><rect width="15.8" height="52.6" rx="2" fill="#15474e"/></g><g transform="translate(584.0,679.7)"><rect width="18.1" height="95.2" rx="2" fill="#164b52"/><rect y="15.2" width="18.1" height="3" fill="#ffffff" opacity="0.05"/></g><g transform="translate(606.6,711.6)"><rect width="30.8" height="63.3" rx="2" fill="#1a565d"/></g><rect x="66" y="892.0" width="588" height="5" rx="2" fill="#0a2e34"/><g transform="translate(72.6,821.3) rotate(1.9 14.4 70.7)"><rect width="28.8" height="70.7" rx="2" fill="#1a565d"/><rect y="11.3" width="28.8" height="3" fill="#ffffff" opacity="0.05"/></g><g transform="translate(105.7,834.1)"><rect width="23.7" height="57.9" rx="2" fill="#1a565d"/><rect y="9.3" width="23.7" height="3" fill="#ffffff" opacity="0.05"/></g><g transform="translate(134.5,821.6)"><rect width="24.7" height="70.4" rx="2" fill="#164b52"/><rect y="11.3" width="24.7" height="3" fill="#ffffff" opacity="0.05"/></g><g transform="translate(163.5,801.6)"><rect width="15.5" height="90.4" rx="2" fill="#1a565d"/><rect y="14.5" width="15.5" height="3" fill="#ffffff" opacity="0.05"/></g><g transform="translate(184.0,824.3)"><rect width="23.2" height="67.7" rx="2" fill="#15474e"/><rect y="10.8" width="23.2" height="3" fill="#ffffff" opacity="0.05"/></g><g transform="translate(213.2,829.8)"><rect width="24.8" height="62.2" rx="2" fill="#1a565d"/></g><g transform="translate(241.7,844.1)"><rect width="30.5" height="47.9" rx="2" fill="#1a565d"/></g><g transform="translate(277.9,817.0)"><rect width="31.5" height="75.0" rx="2" fill="#164b52"/><rect y="12.0" width="31.5" height="3" fill="#ffffff" opacity="0.05"/></g><g transform="translate(313.3,847.8)"><rect width="30.4" height="44.2" rx="2" fill="#164b52"/><rect y="7.1" width="30.4" height="3" fill="#ffffff" opacity="0.05"/></g><g transform="translate(349.5,828.6)"><rect width="15.9" height="63.4" rx="2" fill="#1a565d"/><rect y="10.1" width="15.9" height="3" fill="#ffffff" opacity="0.05"/></g><g transform="translate(371.0,803.0)"><rect width="22.0" height="89.0" rx="2" fill="#1d5f67"/><rect y="14.2" width="22.0" height="3" fill="#ffffff" opacity="0.05"/></g><g transform="translate(395.8,815.6)"><rect width="23.8" height="76.4" rx="2" fill="#164b52"/></g><g transform="translate(425.2,803.6)"><rect width="33.3" height="88.4" rx="2" fill="#1a565d"/></g><g transform="translate(461.0,846.1)"><rect width="30.3" height="45.9" rx="2" fill="#164b52"/><rect y="7.3" width="30.3" height="3" fill="#ffffff" opacity="0.05"/></g><g transform="translate(494.2,811.5)"><rect width="23.5" height="80.5" rx="2" fill="#1d5f67"/><rect y="12.9" width="23.5" height="3" fill="#ffffff" opacity="0.05"/></g><g transform="translate(521.9,825.2)"><rect width="23.5" height="66.8" rx="2" fill="#124149"/><rect y="10.7" width="23.5" height="3" fill="#ffffff" opacity="0.05"/></g><g transform="translate(550.9,832.8)"><rect width="23.0" height="59.2" rx="2" fill="#1a565d"/><rect y="9.5" width="23.0" height="3" fill="#ffffff" opacity="0.05"/></g><g transform="translate(577.2,819.6)"><rect width="19.4" height="72.4" rx="2" fill="#15474e"/><rect y="11.6" width="19.4" height="3" fill="#ffffff" opacity="0.05"/></g><g transform="translate(601.3,841.7)"><rect width="20.1" height="50.3" rx="2" fill="#124149"/><rect y="8.0" width="20.1" height="3" fill="#ffffff" opacity="0.05"/></g><g transform="translate(625.7,818.4)"><rect width="15.0" height="73.6" rx="2" fill="#124149"/><rect y="11.8" width="15.0" height="3" fill="#ffffff" opacity="0.05"/></g></g>
<rect x="20" y="20" width="680" height="960" rx="40" fill="url(#vg)"/>

<!-- إطار -->
<rect x="20" y="20" width="680" height="960" rx="40" fill="none" stroke="#2f8f96" stroke-width="4"/>
<rect x="46" y="46" width="628" height="908" rx="24" fill="none" stroke="#e3a83c" stroke-width="6"/>
<rect x="58" y="58" width="604" height="884" rx="18" fill="none" stroke="#3fb6bb" stroke-width="2.5" stroke-dasharray="2 9" stroke-linecap="round"/>
<use href="#flb" transform="translate(46,46) scale(0.82)"/>
<use href="#flb" transform="translate(674,46) scale(-0.82,0.82)"/>
<use href="#flb" transform="translate(46,954) scale(0.82,-0.82)"/>
<use href="#flb" transform="translate(674,954) scale(-0.82,-0.82)"/>

<!-- لوجو الكتاب المتفتّح -->
<g transform="translate(360,330) scale(1.25)">
  <g>
    <path d="M0,0 C-26,-26 -22,-64 0,-86 C22,-64 26,-26 0,0 Z" transform="rotate(-40)" fill="url(#pgB)"/>
    <path d="M0,0 C-26,-26 -22,-64 0,-86 C22,-64 26,-26 0,0 Z" transform="rotate(40)" fill="url(#pgB)"/>
    <path d="M0,0 C-24,-30 -20,-74 0,-98 C20,-74 24,-30 0,0 Z" transform="rotate(-20)" fill="#3fb6bb"/>
    <path d="M0,0 C-24,-30 -20,-74 0,-98 C20,-74 24,-30 0,0 Z" transform="rotate(20)" fill="#3fb6bb"/>
    <path d="M0,0 C-22,-34 -18,-86 0,-112 C18,-86 22,-34 0,0 Z" fill="url(#pgB)"/>
  </g>
  <path d="M0,-128 L7,-110 L0,-117 L-7,-110 Z" fill="#f6bd4f"/>
  <path d="M0,6 C-30,-10 -70,-10 -96,4 L-96,40 C-70,26 -30,26 0,42 Z" fill="url(#pgB)"/>
  <path d="M0,6 C30,-10 70,-10 96,4 L96,40 C70,26 30,26 0,42 Z" fill="#e7a233"/>
  <rect x="-4" y="6" width="8" height="36" rx="3" fill="#0e3942"/>
</g>

<!-- BOOK -->
<text x="262" y="560" font-family="Arial, sans-serif" font-size="130" font-weight="900" fill="#46c6cb" text-anchor="middle">B</text>
<g fill="none" stroke-width="15">
  <circle cx="345" cy="520" r="33" stroke="#e7a233"/>
  <circle cx="392" cy="520" r="33" stroke="#46c6cb"/>
</g>
<text x="470" y="560" font-family="Arial, sans-serif" font-size="130" font-weight="900" fill="#46c6cb" text-anchor="middle">K</text>
<!-- شرائط ذهبية صغيرة على الحروف -->
<rect x="222" y="486" width="58" height="14" fill="#e7a233"/>
<rect x="222" y="500" width="58" height="7" fill="#3fb6bb"/>
<rect x="440" y="486" width="58" height="14" fill="#e7a233"/>
<rect x="440" y="500" width="58" height="7" fill="#3fb6bb"/>

<!-- HUB -->
<text x="360" y="700" font-family="Arial, sans-serif" font-size="140" font-weight="900" fill="#46c6cb" text-anchor="middle">HUB</text>
<rect x="252" y="618" width="56" height="14" fill="#e7a233"/>
<rect x="252" y="632" width="56" height="7" fill="#3fb6bb"/>
<rect x="412" y="618" width="56" height="14" fill="#e7a233"/>
<rect x="412" y="632" width="56" height="7" fill="#3fb6bb"/>
<!-- رفّ كتب صغير تحت H -->
<rect x="250" y="712" width="64" height="8" rx="3" fill="#e7a233"/>
<g fill="#9a6a2e"><rect x="258" y="688" width="10" height="24" rx="2"/><rect x="270" y="682" width="9" height="30" rx="2"/><rect x="281" y="690" width="11" height="22" rx="2"/><rect x="294" y="686" width="9" height="26" rx="2"/></g>
</svg>