<svg xmlns="http://www.w3.org/2000/svg" viewBox="0 0 166 166">
  <path d="M16,150 C16,75 75,16 150,16" fill="none" stroke="#e3a83c" stroke-width="5"/>
  <path d="M30,150 C30,90 90,30 150,30" fill="none" stroke="#1f6b73" stroke-width="3"/>
  <path d="M52,52 C92,40 120,66 110,108 C86,92 60,86 52,52 Z" fill="#2a7c84"/>
  <path d="M62,62 C92,54 112,72 104,100 C84,88 70,80 62,62 Z" fill="#e3a83c"/>
  <path d="M120,120 C150,116 170,134 164,158 C148,150 132,140 120,120 Z" fill="#2a7c84" transform="rotate(-12 140 140)"/>
  <circle cx="34" cy="128" r="4.5" fill="#e3a83c"/>
  <circle cx="128" cy="34" r="4.5" fill="#e3a83c"/>
  <circle cx="150" cy="16" r="4" fill="#2a7c84"/>
  <circle cx="16" cy="150" r="4" fill="#2a7c84"/>
</svg>
