<svg xmlns="http://www.w3.org/2000/svg" viewBox="0 0 440 900" preserveAspectRatio="xMidYMid slice">
<defs>
<linearGradient id="sbg" x1="0" y1="0" x2="0" y2="1"><stop offset="0" stop-color="#17474f"/><stop offset="1" stop-color="#0b2a30"/></linearGradient>
<radialGradient id="vig" cx="50%" cy="42%" r="78%"><stop offset="55%" stop-color="#000" stop-opacity="0"/><stop offset="100%" stop-color="#000" stop-opacity="0.38"/></radialGradient>
</defs>
<rect width="440" height="900" fill="url(#sbg)"/>
<g opacity="0.88"><rect x="6" y="122.6" width="428" height="5" rx="2" fill="#0a2a30"/><g transform="translate(17.1,41.3)"><rect width="21.5" height="81.3" rx="2" fill="#1c5159"/><rect y="13.0" width="21.5" height="3.2" fill="#ffffff" opacity="0.06"/></g><g transform="translate(41.7,50.5)"><rect width="22.9" height="72.1" rx="2" fill="#246a72"/></g><g transform="translate(68.2,66.2)"><rect width="14.9" height="56.4" rx="2" fill="#1f5a62"/></g><g transform="translate(85.0,43.1)"><rect width="22.7" height="79.4" rx="2" fill="#15454c"/></g><g transform="translate(110.2,62.0)"><rect width="23.2" height="60.6" rx="2" fill="#1a4d55"/><rect y="9.7" width="23.2" height="3.2" fill="#ffffff" opacity="0.06"/></g><g transform="translate(135.4,56.4)"><rect width="25.4" height="66.1" rx="2" fill="#246a72"/><rect y="10.6" width="25.4" height="3.2" fill="#ffffff" opacity="0.06"/></g><g transform="translate(164.8,54.3)"><rect width="26.8" height="68.3" rx="2" fill="#1a4d55"/><rect y="10.9" width="26.8" height="3.2" fill="#ffffff" opacity="0.06"/></g><g transform="translate(194.6,47.5)"><rect width="16.9" height="75.1" rx="2" fill="#205f68"/><rect y="12.0" width="16.9" height="3.2" fill="#ffffff" opacity="0.06"/></g><g transform="translate(214.3,19.5)"><rect width="23.4" height="103.1" rx="2" fill="#15454c"/><rect y="16.5" width="23.4" height="3.2" fill="#ffffff" opacity="0.06"/></g><g transform="translate(241.5,32.5)"><rect width="19.5" height="90.0" rx="2" fill="#15454c"/></g><g transform="translate(263.0,40.0)"><rect width="14.1" height="82.6" rx="2" fill="#1c5159"/><rect y="13.2" width="14.1" height="3.2" fill="#ffffff" opacity="0.06"/></g><g transform="translate(281.4,40.0)"><rect width="27.4" height="82.5" rx="2" fill="#15454c"/><rect y="13.2" width="27.4" height="3.2" fill="#ffffff" opacity="0.06"/></g><g transform="translate(311.2,76.1)"><rect width="21.3" height="46.5" rx="2" fill="#184850"/><rect y="7.4" width="21.3" height="3.2" fill="#ffffff" opacity="0.06"/></g><g transform="translate(334.2,45.0)"><rect width="25.4" height="77.6" rx="2" fill="#246a72"/></g><g transform="translate(363.8,41.9)"><rect width="29.3" height="80.7" rx="2" fill="#1c5159"/><rect y="12.9" width="29.3" height="3.2" fill="#ffffff" opacity="0.06"/></g><g transform="translate(396.5,18.8)"><rect width="23.7" height="103.7" rx="2" fill="#1c5159"/></g><rect x="6" y="251.1" width="428" height="5" rx="2" fill="#0a2a30"/><g transform="translate(15.4,183.3)"><rect width="28.7" height="67.8" rx="2" fill="#205f68"/><rect y="10.9" width="28.7" height="3.2" fill="#ffffff" opacity="0.06"/></g><g transform="translate(47.6,168.7)"><rect width="20.9" height="82.4" rx="2" fill="#1f5a62"/><rect y="13.2" width="20.9" height="3.2" fill="#ffffff" opacity="0.06"/></g><g transform="translate(71.6,194.6)"><rect width="18.9" height="56.5" rx="2" fill="#205f68"/><rect y="9.0" width="18.9" height="3.2" fill="#ffffff" opacity="0.06"/></g><g transform="translate(93.3,172.1) rotate(-0.0 13.7 79.0)"><rect width="27.3" height="79.0" rx="2" fill="#1c5159"/><rect y="12.6" width="27.3" height="3.2" fill="#ffffff" opacity="0.06"/></g><g transform="translate(122.6,201.4)"><rect width="26.5" height="49.7" rx="2" fill="#1a4d55"/></g><g transform="translate(153.1,148.2)"><rect width="28.5" height="103.0" rx="2" fill="#1a4d55"/><rect y="16.5" width="28.5" height="3.2" fill="#ffffff" opacity="0.06"/></g><g transform="translate(184.4,202.2)"><rect width="21.6" height="48.9" rx="2" fill="#1a4d55"/><rect y="7.8" width="21.6" height="3.2" fill="#ffffff" opacity="0.06"/></g><g transform="translate(209.7,185.5)"><rect width="19.4" height="65.6" rx="2" fill="#1c5159"/><rect y="10.5" width="19.4" height="3.2" fill="#ffffff" opacity="0.06"/></g><g transform="translate(231.9,165.5)"><rect width="16.4" height="85.7" rx="2" fill="#15454c"/><rect y="13.7" width="16.4" height="3.2" fill="#ffffff" opacity="0.06"/></g><g transform="translate(250.2,157.5)"><rect width="15.0" height="93.7" rx="2" fill="#1a4d55"/></g><g transform="translate(269.2,158.0)"><rect width="25.3" height="93.1" rx="2" fill="#1a4d55"/><rect y="14.9" width="25.3" height="3.2" fill="#ffffff" opacity="0.06"/></g><g transform="translate(296.3,199.5)"><rect width="18.2" height="51.6" rx="2" fill="#184850"/></g><g transform="translate(318.3,182.9)"><rect width="24.7" height="68.3" rx="2" fill="#205f68"/><rect y="10.9" width="24.7" height="3.2" fill="#ffffff" opacity="0.06"/></g><g transform="translate(346.4,172.5)"><rect width="12.2" height="78.7" rx="2" fill="#184850"/></g><g transform="translate(360.2,160.6)"><rect width="21.5" height="90.6" rx="2" fill="#1f5a62"/></g><g transform="translate(384.6,147.7)"><rect width="28.7" height="103.4" rx="2" fill="#15454c"/><rect y="16.6" width="28.7" height="3.2" fill="#ffffff" opacity="0.06"/></g><g transform="translate(415.4,200.0)"><rect width="13.7" height="51.1" rx="2" fill="#184850"/><rect y="8.2" width="13.7" height="3.2" fill="#ffffff" opacity="0.06"/></g><rect x="6" y="379.7" width="428" height="5" rx="2" fill="#0a2a30"/><g transform="translate(12.8,318.0)"><rect width="27.0" height="61.7" rx="2" fill="#1a4d55"/><rect y="9.9" width="27.0" height="3.2" fill="#ffffff" opacity="0.06"/></g><g transform="translate(42.4,281.7)"><rect width="14.4" height="98.0" rx="2" fill="#1c5159"/><rect y="15.7" width="14.4" height="3.2" fill="#ffffff" opacity="0.06"/></g><g transform="translate(60.0,318.7)"><rect width="21.8" height="61.0" rx="2" fill="#246a72"/><rect y="9.8" width="21.8" height="3.2" fill="#ffffff" opacity="0.06"/></g><g transform="translate(84.5,320.0)"><rect width="14.3" height="59.7" rx="2" fill="#2f8389"/><rect y="9.6" width="14.3" height="3.2" fill="#ffffff" opacity="0.06"/></g><g transform="translate(101.0,288.3)"><rect width="19.8" height="91.4" rx="2" fill="#1c5159"/><rect y="14.6" width="19.8" height="3.2" fill="#ffffff" opacity="0.06"/></g><g transform="translate(124.5,314.6)"><rect width="28.6" height="65.1" rx="2" fill="#1c5159"/></g><g transform="translate(156.6,280.3)"><rect width="13.8" height="99.4" rx="2" fill="#184850"/><rect y="15.9" width="13.8" height="3.2" fill="#ffffff" opacity="0.06"/></g><g transform="translate(174.1,288.3)"><rect width="22.3" height="91.5" rx="2" fill="#184850"/><rect y="14.6" width="22.3" height="3.2" fill="#ffffff" opacity="0.06"/></g><g transform="translate(200.0,330.9)"><rect width="24.7" height="48.9" rx="2" fill="#205f68"/></g><g transform="translate(227.4,290.7)"><rect width="29.1" height="89.0" rx="2" fill="#1a4d55"/><rect y="14.2" width="29.1" height="3.2" fill="#ffffff" opacity="0.06"/></g><g transform="translate(260.9,296.0)"><rect width="16.5" height="83.7" rx="2" fill="#15454c"/></g><g transform="translate(280.7,301.7)"><rect width="29.5" height="78.0" rx="2" fill="#205f68"/><rect y="12.5" width="29.5" height="3.2" fill="#ffffff" opacity="0.06"/></g><g transform="translate(314.5,302.0)"><rect width="13.8" height="77.7" rx="2" fill="#246a72"/><rect y="12.4" width="13.8" height="3.2" fill="#ffffff" opacity="0.06"/></g><g transform="translate(331.8,316.3)"><rect width="17.0" height="63.4" rx="2" fill="#1a4d55"/><rect y="10.1" width="17.0" height="3.2" fill="#ffffff" opacity="0.06"/></g><g transform="translate(352.0,322.1)"><rect width="20.1" height="57.6" rx="2" fill="#b78a33"/><rect y="9.2" width="20.1" height="3.2" fill="#ffffff" opacity="0.06"/></g><g transform="translate(376.3,313.6)"><rect width="18.2" height="66.1" rx="2" fill="#b78a33"/></g><g transform="translate(398.1,278.3)"><rect width="23.3" height="101.4" rx="2" fill="#1c5159"/><rect y="16.2" width="23.3" height="3.2" fill="#ffffff" opacity="0.06"/></g><rect x="6" y="508.3" width="428" height="5" rx="2" fill="#0a2a30"/><g transform="translate(20.5,454.7)"><rect width="14.8" height="53.6" rx="2" fill="#1a4d55"/><rect y="8.6" width="14.8" height="3.2" fill="#ffffff" opacity="0.06"/></g><g transform="translate(37.9,449.2) rotate(-3.6 6.1 59.1)"><rect width="12.2" height="59.1" rx="2" fill="#205f68"/><rect y="9.5" width="12.2" height="3.2" fill="#ffffff" opacity="0.06"/></g><g transform="translate(52.8,461.3)"><rect width="21.0" height="46.9" rx="2" fill="#184850"/><rect y="7.5" width="21.0" height="3.2" fill="#ffffff" opacity="0.06"/></g><g transform="translate(75.6,460.4)"><rect width="14.8" height="47.9" rx="2" fill="#15454c"/><rect y="7.7" width="14.8" height="3.2" fill="#ffffff" opacity="0.06"/></g><g transform="translate(94.5,444.2)"><rect width="20.5" height="64.0" rx="2" fill="#1c5159"/><rect y="10.2" width="20.5" height="3.2" fill="#ffffff" opacity="0.06"/></g><g transform="translate(118.6,438.8)"><rect width="20.3" height="69.5" rx="2" fill="#15454c"/></g><g transform="translate(140.6,454.9)"><rect width="23.4" height="53.4" rx="2" fill="#1c5159"/></g><g transform="translate(166.1,438.3) rotate(3.1 14.7 70.0)"><rect width="29.3" height="70.0" rx="2" fill="#15454c"/><rect y="11.2" width="29.3" height="3.2" fill="#ffffff" opacity="0.06"/></g><g transform="translate(198.5,411.1)"><rect width="27.4" height="97.2" rx="2" fill="#1f5a62"/></g><g transform="translate(228.4,456.7)"><rect width="18.3" height="51.6" rx="2" fill="#1a4d55"/><rect y="8.2" width="18.3" height="3.2" fill="#ffffff" opacity="0.06"/></g><g transform="translate(250.1,448.0)"><rect width="20.4" height="60.3" rx="2" fill="#246a72"/></g><g transform="translate(272.5,455.5)"><rect width="19.9" height="52.8" rx="2" fill="#1c5159"/></g><g transform="translate(294.7,424.1)"><rect width="14.9" height="84.2" rx="2" fill="#1f5a62"/><rect y="13.5" width="14.9" height="3.2" fill="#ffffff" opacity="0.06"/></g><g transform="translate(311.3,443.5)"><rect width="13.0" height="64.7" rx="2" fill="#246a72"/></g><g transform="translate(328.0,423.5)"><rect width="17.2" height="84.8" rx="2" fill="#15454c"/></g><g transform="translate(347.2,408.2)"><rect width="16.4" height="100.1" rx="2" fill="#2a7c84"/><rect y="16.0" width="16.4" height="3.2" fill="#ffffff" opacity="0.06"/></g><g transform="translate(365.1,433.9)"><rect width="14.7" height="74.4" rx="2" fill="#1a4d55"/></g><g transform="translate(382.8,408.2)"><rect width="15.8" height="100.0" rx="2" fill="#184850"/><rect y="16.0" width="15.8" height="3.2" fill="#ffffff" opacity="0.06"/></g><g transform="translate(401.0,415.5)"><rect width="21.1" height="92.8" rx="2" fill="#2f8389"/></g><rect x="6" y="636.9" width="428" height="5" rx="2" fill="#0a2a30"/><g transform="translate(16.7,553.7)"><rect width="14.7" height="83.1" rx="2" fill="#246a72"/><rect y="13.3" width="14.7" height="3.2" fill="#ffffff" opacity="0.06"/></g><g transform="translate(35.7,577.0)"><rect width="14.6" height="59.9" rx="2" fill="#1c5159"/><rect y="9.6" width="14.6" height="3.2" fill="#ffffff" opacity="0.06"/></g><g transform="translate(51.9,542.4)"><rect width="18.1" height="94.4" rx="2" fill="#184850"/><rect y="15.1" width="18.1" height="3.2" fill="#ffffff" opacity="0.06"/></g><g transform="translate(72.8,548.7)"><rect width="19.4" height="88.2" rx="2" fill="#1a4d55"/></g><g transform="translate(94.1,557.4)"><rect width="12.2" height="79.5" rx="2" fill="#2a7c84"/><rect y="12.7" width="12.2" height="3.2" fill="#ffffff" opacity="0.06"/></g><g transform="translate(110.0,586.7)"><rect width="12.1" height="50.1" rx="2" fill="#2f8389"/></g><g transform="translate(126.0,556.1) rotate(-0.9 11.8 80.8)"><rect width="23.6" height="80.8" rx="2" fill="#205f68"/><rect y="12.9" width="23.6" height="3.2" fill="#ffffff" opacity="0.06"/></g><g transform="translate(151.9,574.5)"><rect width="19.3" height="62.4" rx="2" fill="#1a4d55"/></g><g transform="translate(174.9,560.8)"><rect width="14.6" height="76.0" rx="2" fill="#b78a33"/></g><g transform="translate(192.1,565.1)"><rect width="23.4" height="71.7" rx="2" fill="#1f5a62"/><rect y="11.5" width="23.4" height="3.2" fill="#ffffff" opacity="0.06"/></g><g transform="translate(217.3,562.5)"><rect width="17.9" height="74.3" rx="2" fill="#15454c"/><rect y="11.9" width="17.9" height="3.2" fill="#ffffff" opacity="0.06"/></g><g transform="translate(237.8,550.6)"><rect width="14.2" height="86.3" rx="2" fill="#246a72"/><rect y="13.8" width="14.2" height="3.2" fill="#ffffff" opacity="0.06"/></g><g transform="translate(255.1,556.0)"><rect width="15.6" height="80.9" rx="2" fill="#15454c"/><rect y="12.9" width="15.6" height="3.2" fill="#ffffff" opacity="0.06"/></g><g transform="translate(273.3,574.8)"><rect width="19.2" height="62.1" rx="2" fill="#1f5a62"/></g><g transform="translate(294.3,555.7)"><rect width="21.3" height="81.1" rx="2" fill="#205f68"/></g><g transform="translate(317.5,566.5)"><rect width="25.2" height="70.4" rx="2" fill="#205f68"/></g><g transform="translate(346.2,573.5)"><rect width="12.2" height="63.3" rx="2" fill="#15454c"/></g><g transform="translate(361.7,543.1)"><rect width="23.8" height="93.8" rx="2" fill="#1a4d55"/></g><g transform="translate(388.7,581.8)"><rect width="15.3" height="55.0" rx="2" fill="#246a72"/><rect y="8.8" width="15.3" height="3.2" fill="#ffffff" opacity="0.06"/></g><g transform="translate(406.1,572.1)"><rect width="13.7" height="64.8" rx="2" fill="#205f68"/><rect y="10.4" width="13.7" height="3.2" fill="#ffffff" opacity="0.06"/></g><rect x="6" y="765.4" width="428" height="5" rx="2" fill="#0a2a30"/><g transform="translate(12.3,664.1)"><rect width="22.5" height="101.3" rx="2" fill="#1c5159"/><rect y="16.2" width="22.5" height="3.2" fill="#ffffff" opacity="0.06"/></g><g transform="translate(36.6,666.3)"><rect width="20.6" height="99.1" rx="2" fill="#246a72"/></g><g transform="translate(60.1,699.1)"><rect width="29.9" height="66.3" rx="2" fill="#1f5a62"/><rect y="10.6" width="29.9" height="3.2" fill="#ffffff" opacity="0.06"/></g><g transform="translate(92.1,687.5)"><rect width="17.6" height="78.0" rx="2" fill="#205f68"/></g><g transform="translate(113.5,664.0)"><rect width="22.6" height="101.5" rx="2" fill="#246a72"/><rect y="16.2" width="22.6" height="3.2" fill="#ffffff" opacity="0.06"/></g><g transform="translate(140.5,713.0)"><rect width="23.4" height="52.4" rx="2" fill="#1a4d55"/></g><g transform="translate(167.4,686.9)"><rect width="18.9" height="78.6" rx="2" fill="#1c5159"/><rect y="12.6" width="18.9" height="3.2" fill="#ffffff" opacity="0.06"/></g><g transform="translate(190.3,687.1)"><rect width="14.8" height="78.3" rx="2" fill="#184850"/><rect y="12.5" width="14.8" height="3.2" fill="#ffffff" opacity="0.06"/></g><g transform="translate(207.6,676.4)"><rect width="28.8" height="89.0" rx="2" fill="#205f68"/><rect y="14.2" width="28.8" height="3.2" fill="#ffffff" opacity="0.06"/></g><g transform="translate(239.9,692.6)"><rect width="16.9" height="72.9" rx="2" fill="#1c5159"/><rect y="11.7" width="16.9" height="3.2" fill="#ffffff" opacity="0.06"/></g><g transform="translate(258.4,680.2)"><rect width="24.0" height="85.2" rx="2" fill="#1c5159"/><rect y="13.6" width="24.0" height="3.2" fill="#ffffff" opacity="0.06"/></g><g transform="translate(286.9,704.5)"><rect width="23.5" height="61.0" rx="2" fill="#15454c"/></g><g transform="translate(312.9,714.2)"><rect width="17.7" height="51.2" rx="2" fill="#1a4d55"/></g><g transform="translate(334.2,696.2)"><rect width="25.6" height="69.2" rx="2" fill="#1f5a62"/></g><g transform="translate(362.1,711.0) rotate(0.2 8.6 54.4)"><rect width="17.2" height="54.4" rx="2" fill="#15454c"/><rect y="8.7" width="17.2" height="3.2" fill="#ffffff" opacity="0.06"/></g><g transform="translate(382.6,663.6)"><rect width="27.7" height="101.8" rx="2" fill="#184850"/></g><g transform="translate(413.1,713.0)"><rect width="27.9" height="52.4" rx="2" fill="#205f68"/><rect y="8.4" width="27.9" height="3.2" fill="#ffffff" opacity="0.06"/></g><rect x="6" y="894.0" width="428" height="5" rx="2" fill="#0a2a30"/><g transform="translate(12.7,812.2)"><rect width="24.5" height="81.8" rx="2" fill="#184850"/><rect y="13.1" width="24.5" height="3.2" fill="#ffffff" opacity="0.06"/></g><g transform="translate(41.4,811.5) rotate(0.2 11.1 82.5)"><rect width="22.2" height="82.5" rx="2" fill="#184850"/><rect y="13.2" width="22.2" height="3.2" fill="#ffffff" opacity="0.06"/></g><g transform="translate(65.8,810.9) rotate(-1.5 10.5 83.1)"><rect width="21.1" height="83.1" rx="2" fill="#246a72"/><rect y="13.3" width="21.1" height="3.2" fill="#ffffff" opacity="0.06"/></g><g transform="translate(90.2,813.9)"><rect width="26.0" height="80.1" rx="2" fill="#1a4d55"/><rect y="12.8" width="26.0" height="3.2" fill="#ffffff" opacity="0.06"/></g><g transform="translate(118.4,838.5)"><rect width="20.2" height="55.5" rx="2" fill="#1a4d55"/><rect y="8.9" width="20.2" height="3.2" fill="#ffffff" opacity="0.06"/></g><g transform="translate(142.9,841.9)"><rect width="14.5" height="52.1" rx="2" fill="#184850"/></g><g transform="translate(161.0,801.4)"><rect width="24.0" height="92.6" rx="2" fill="#205f68"/><rect y="14.8" width="24.0" height="3.2" fill="#ffffff" opacity="0.06"/></g><g transform="translate(187.7,798.6)"><rect width="18.2" height="95.4" rx="2" fill="#2a7c84"/><rect y="15.3" width="18.2" height="3.2" fill="#ffffff" opacity="0.06"/></g><g transform="translate(207.5,809.9)"><rect width="20.7" height="84.1" rx="2" fill="#1a4d55"/><rect y="13.5" width="20.7" height="3.2" fill="#ffffff" opacity="0.06"/></g><g transform="translate(230.6,794.6)"><rect width="14.8" height="99.4" rx="2" fill="#1f5a62"/></g><g transform="translate(249.5,791.2)"><rect width="13.2" height="102.8" rx="2" fill="#1a4d55"/><rect y="16.4" width="13.2" height="3.2" fill="#ffffff" opacity="0.06"/></g><g transform="translate(264.1,818.5)"><rect width="27.3" height="75.5" rx="2" fill="#246a72"/><rect y="12.1" width="27.3" height="3.2" fill="#ffffff" opacity="0.06"/></g><g transform="translate(294.5,790.6)"><rect width="26.5" height="103.4" rx="2" fill="#246a72"/><rect y="16.5" width="26.5" height="3.2" fill="#ffffff" opacity="0.06"/></g><g transform="translate(323.2,846.2)"><rect width="24.7" height="47.8" rx="2" fill="#205f68"/></g><g transform="translate(350.7,794.1) rotate(-3.5 13.6 99.9)"><rect width="27.1" height="99.9" rx="2" fill="#246a72"/><rect y="16.0" width="27.1" height="3.2" fill="#ffffff" opacity="0.06"/></g><g transform="translate(380.4,832.6)"><rect width="25.1" height="61.4" rx="2" fill="#1f5a62"/></g><g transform="translate(408.4,846.6)"><rect width="27.2" height="47.4" rx="2" fill="#184850"/></g></g>
<rect width="440" height="900" fill="url(#vig)"/>
</svg>