<svg xmlns="http://www.w3.org/2000/svg" viewBox="0 0 1024 1024">
  <defs>
    <linearGradient id="card" x1="0" y1="0" x2="0" y2="1">
      <stop offset="0%" stop-color="#fffaf0"/>
      <stop offset="100%" stop-color="#f3e9d4"/>
    </linearGradient>
    <linearGradient id="gold" x1="0" y1="0" x2="0" y2="1">
      <stop offset="0%" stop-color="#f7cf63"/>
      <stop offset="100%" stop-color="#d9a738"/>
    </linearGradient>
  </defs>

  <!-- back card (tilted) -->
  <g transform="rotate(-9 512 512)">
    <rect x="360" y="300" width="304" height="424" rx="38" fill="#e9dcc2" opacity="0.55"/>
  </g>

  <!-- main card -->
  <g transform="rotate(6 512 512)">
    <rect x="356" y="292" width="312" height="440" rx="40" fill="url(#card)" stroke="url(#gold)" stroke-width="11"/>
    <!-- top stripe -->
    <rect x="356" y="292" width="312" height="58" rx="40" fill="url(#gold)"/>
    <rect x="356" y="320" width="312" height="30" fill="url(#gold)"/>

    <!-- open book -->
    <polygon points="512,452 392,432 392,612 512,634" fill="url(#gold)"/>
    <polygon points="512,452 632,432 632,612 512,634" fill="#e0b341"/>
    <rect x="506" y="450" width="12" height="186" rx="4" fill="#b8902f"/>
    <!-- page lines -->
    <line x1="418" y1="478" x2="496" y2="488" stroke="#c79b33" stroke-width="7" stroke-linecap="round"/>
    <line x1="418" y1="518" x2="496" y2="528" stroke="#c79b33" stroke-width="7" stroke-linecap="round"/>
    <line x1="418" y1="558" x2="496" y2="568" stroke="#c79b33" stroke-width="7" stroke-linecap="round"/>
    <line x1="528" y1="488" x2="606" y2="478" stroke="#b8902f" stroke-width="7" stroke-linecap="round"/>
    <line x1="528" y1="528" x2="606" y2="518" stroke="#b8902f" stroke-width="7" stroke-linecap="round"/>
    <line x1="528" y1="568" x2="606" y2="558" stroke="#b8902f" stroke-width="7" stroke-linecap="round"/>

    <!-- corner pips: H for Hub -->
    <text x="390" y="358" font-family="Arial, sans-serif" font-size="46" font-weight="900" fill="#2a1a3e" text-anchor="middle">H</text>
    <text x="634" y="690" font-family="Arial, sans-serif" font-size="46" font-weight="900" fill="#2a1a3e" text-anchor="middle" transform="rotate(180 634 674)">H</text>
  </g>
</svg>
