<svg xmlns="http://www.w3.org/2000/svg" viewBox="0 0 1024 1024">
  <defs>
    <linearGradient id="pg" x1="0" y1="0" x2="0" y2="1">
      <stop offset="0" stop-color="#f8c659"/><stop offset="1" stop-color="#e7a233"/>
    </linearGradient>
    <linearGradient id="tg" x1="0" y1="0" x2="0" y2="1">
      <stop offset="0" stop-color="#54d4d6"/><stop offset="1" stop-color="#34b3b8"/>
    </linearGradient>
  </defs>
  <!-- لوجو الكتاب المتفتّح (BookHub) -->
  <g transform="translate(512,600) scale(3.3)">
    <g>
      <path d="M0,0 C-26,-26 -22,-64 0,-86 C22,-64 26,-26 0,0 Z" transform="rotate(-40)" fill="url(#pg)"/>
      <path d="M0,0 C-26,-26 -22,-64 0,-86 C22,-64 26,-26 0,0 Z" transform="rotate(40)" fill="url(#pg)"/>
      <path d="M0,0 C-24,-30 -20,-74 0,-98 C20,-74 24,-30 0,0 Z" transform="rotate(-20)" fill="url(#tg)"/>
      <path d="M0,0 C-24,-30 -20,-74 0,-98 C20,-74 24,-30 0,0 Z" transform="rotate(20)" fill="url(#tg)"/>
      <path d="M0,0 C-22,-34 -18,-86 0,-112 C18,-86 22,-34 0,0 Z" fill="url(#pg)"/>
    </g>
    <path d="M0,-128 L7,-110 L0,-117 L-7,-110 Z" fill="#f8c659"/>
    <path d="M0,6 C-30,-10 -70,-10 -96,4 L-96,40 C-70,26 -30,26 0,42 Z" fill="url(#pg)"/>
    <path d="M0,6 C30,-10 70,-10 96,4 L96,40 C70,26 30,26 0,42 Z" fill="#e7a233"/>
    <rect x="-4" y="6" width="8" height="36" rx="3" fill="#0c3134"/>
  </g>
</svg>
