<svg xmlns="http://www.w3.org/2000/svg" viewBox="0 0 2732 2732">
  <defs>
    <radialGradient id="bg" cx="50%" cy="42%" r="70%">
      <stop offset="0%" stop-color="#1d6e74"/>
      <stop offset="60%" stop-color="#134a4e"/>
      <stop offset="100%" stop-color="#0c3134"/>
    </radialGradient>
    <linearGradient id="card" x1="0" y1="0" x2="0" y2="1">
      <stop offset="0%" stop-color="#fffaf0"/>
      <stop offset="100%" stop-color="#f3e9d4"/>
    </linearGradient>
    <linearGradient id="gold" x1="0" y1="0" x2="0" y2="1">
      <stop offset="0%" stop-color="#f8c659"/>
      <stop offset="100%" stop-color="#d99a2a"/>
    </linearGradient>
  </defs>
  <rect width="2732" height="2732" fill="url(#bg)"/>

  <g transform="translate(1366 1180)">
    <g transform="rotate(6) scale(1.15)">
      <rect x="-156" y="-220" width="312" height="440" rx="40" fill="url(#card)" stroke="url(#gold)" stroke-width="11"/>
      <rect x="-156" y="-220" width="312" height="52" rx="40" fill="url(#gold)"/>
      <rect x="-156" y="-192" width="312" height="24" fill="url(#gold)"/>
      <rect x="-156" y="-168" width="312" height="16" fill="#3fc6c9"/>
      <polygon points="0,-60 -120,-80 -120,100 0,122" fill="url(#gold)"/>
      <polygon points="0,-60 120,-80 120,100 0,122" fill="#e0b341"/>
      <rect x="-6" y="-62" width="12" height="186" rx="4" fill="#2b8a8f"/>
    </g>
  </g>

  <text x="1366" y="1740" font-family="Arial, sans-serif" font-size="190" font-weight="900" fill="#f5b83e" text-anchor="middle">Hub Cards</text>
  <text x="1366" y="1850" font-family="Arial, sans-serif" font-size="86" font-weight="700" fill="#aed8d9" text-anchor="middle">من عائلة BookHub</text>
</svg>
