<svg xmlns="http://www.w3.org/2000/svg" viewBox="0 0 2732 2732">
  <defs>
    <radialGradient id="goldBg" cx="50%" cy="42%" r="75%">
      <stop offset="0" stop-color="#1a4e57"/><stop offset="60%" stop-color="#123e45"/><stop offset="100%" stop-color="#0a2a30"/>
    </radialGradient>
    <linearGradient id="petalGold" x1="0" y1="0" x2="0" y2="1">
      <stop offset="0" stop-color="#f6bd4f"/><stop offset="1" stop-color="#e7a233"/>
    </linearGradient>
    <g id="fl">
      <path d="M16,150 C16,75 75,16 150,16" fill="none" stroke="#e3a83c" stroke-width="5"/>
      <path d="M30,150 C30,90 90,30 150,30" fill="none" stroke="#1f6b73" stroke-width="3"/>
      <path d="M52,52 C92,40 120,66 110,108 C86,92 60,86 52,52 Z" fill="#2a7c84"/>
      <path d="M62,62 C92,54 112,72 104,100 C84,88 70,80 62,62 Z" fill="#e3a83c"/>
      <path d="M120,120 C150,116 170,134 164,158 C148,150 132,140 120,120 Z" fill="#2a7c84" transform="rotate(-12 140 140)"/>
      <circle cx="34" cy="128" r="4.5" fill="#e3a83c"/>
      <circle cx="128" cy="34" r="4.5" fill="#e3a83c"/>
      <circle cx="150" cy="16" r="4" fill="#2a7c84"/>
      <circle cx="16" cy="150" r="4" fill="#2a7c84"/>
    </g>
  </defs>

  <rect width="2732" height="2732" fill="url(#goldBg)"/>

  <g transform="translate(538,216) scale(2.3)">
    <rect x="26" y="26" width="668" height="948" rx="34" fill="#f6efdd"/>
    <rect x="46" y="46" width="628" height="908" rx="22" fill="none" stroke="#e3a83c" stroke-width="6"/>
    <rect x="58" y="58" width="604" height="884" rx="16" fill="none" stroke="#1f6b73" stroke-width="2.5" stroke-dasharray="2 9" stroke-linecap="round"/>
    <use href="#fl" transform="translate(46,46) scale(0.8)"/>
    <use href="#fl" transform="translate(674,46) scale(-0.8,0.8)"/>
    <use href="#fl" transform="translate(46,954) scale(0.8,-0.8)"/>
    <use href="#fl" transform="translate(674,954) scale(-0.8,-0.8)"/>
    <g transform="translate(360,170)">
      <g>
        <path d="M0,0 C-26,-26 -22,-64 0,-86 C22,-64 26,-26 0,0 Z" transform="rotate(-40)" fill="url(#petalGold)"/>
        <path d="M0,0 C-26,-26 -22,-64 0,-86 C22,-64 26,-26 0,0 Z" transform="rotate(40)" fill="url(#petalGold)"/>
        <path d="M0,0 C-24,-30 -20,-74 0,-98 C20,-74 24,-30 0,0 Z" transform="rotate(-20)" fill="#2a7c84"/>
        <path d="M0,0 C-24,-30 -20,-74 0,-98 C20,-74 24,-30 0,0 Z" transform="rotate(20)" fill="#2a7c84"/>
        <path d="M0,0 C-22,-34 -18,-86 0,-112 C18,-86 22,-34 0,0 Z" fill="url(#petalGold)"/>
      </g>
      <path d="M0,-128 L6,-112 L0,-118 L-6,-112 Z" fill="#e3a83c"/>
      <path d="M0,6 C-30,-10 -70,-10 -96,4 L-96,40 C-70,26 -30,26 0,42 Z" fill="url(#petalGold)"/>
      <path d="M0,6 C30,-10 70,-10 96,4 L96,40 C70,26 30,26 0,42 Z" fill="#e7a233"/>
      <rect x="-4" y="6" width="8" height="36" rx="3" fill="#1f6b73"/>
    </g>
    <text x="360" y="278" font-family="Georgia, 'Times New Roman', serif" font-size="42" font-weight="700" letter-spacing="6" fill="#15414a" text-anchor="middle">BOOKHUB</text>
    <text x="360" y="312" font-family="Arial, sans-serif" font-size="18" font-weight="700" letter-spacing="8" fill="#2a7c84" text-anchor="middle">PRESENTS</text>
    <text x="360" y="438" font-family="Georgia, 'Times New Roman', serif" font-size="128" font-weight="900" letter-spacing="2" fill="#15414a" text-anchor="middle">HUB</text>
    <text x="360" y="552" font-family="Georgia, 'Times New Roman', serif" font-size="104" font-weight="900" letter-spacing="6" fill="#ef9a2b" text-anchor="middle">CARDS</text>
    <text x="360" y="612" font-family="'Tajawal', Arial, sans-serif" font-size="34" font-weight="800" fill="#15414a" text-anchor="middle">اقرأ، جاوب بسرعة… أو نفّذ الحُكم!</text>
    <g stroke="#2a7c84" stroke-width="2.5" fill="none">
      <line x1="210" y1="660" x2="335" y2="660"/>
      <line x1="385" y1="660" x2="510" y2="660"/>
    </g>
    <path d="M360,648 L372,660 L360,672 L348,660 Z" fill="#e3a83c"/>
    <g text-anchor="middle">
      <g transform="translate(225,740)" fill="#15414a">
        <circle cx="-12" cy="-4" r="10"/><circle cx="12" cy="-4" r="10"/>
        <path d="M-28,18 C-28,2 -16,2 -12,2 C-8,2 4,2 4,18 Z"/>
        <path d="M-4,18 C-4,2 8,2 12,2 C16,2 28,2 28,18 Z"/>
      </g>
      <text x="225" y="792" font-family="Georgia, serif" font-size="36" font-weight="900" fill="#15414a">2-5</text>
      <text x="225" y="822" font-family="'Tajawal',Arial,sans-serif" font-size="20" font-weight="700" fill="#2a7c84">لاعبين</text>
      <g transform="translate(360,738)" fill="none" stroke="#15414a" stroke-width="6"><circle cx="0" cy="0" r="20"/></g>
      <line x1="360" y1="738" x2="360" y2="724" stroke="#15414a" stroke-width="5" stroke-linecap="round"/>
      <line x1="360" y1="738" x2="372" y2="744" stroke="#15414a" stroke-width="5" stroke-linecap="round"/>
      <text x="360" y="792" font-family="Georgia, serif" font-size="36" font-weight="900" fill="#15414a">10</text>
      <text x="360" y="822" font-family="'Tajawal',Arial,sans-serif" font-size="20" font-weight="700" fill="#2a7c84">ثواني</text>
      <g transform="translate(495,742)" fill="#15414a">
        <path d="M-16,-18 L16,-18 L14,-2 C14,8 -14,8 -14,-2 Z"/>
        <path d="M-16,-14 C-26,-14 -26,0 -14,-2" fill="none" stroke="#15414a" stroke-width="4"/>
        <path d="M16,-14 C26,-14 26,0 14,-2" fill="none" stroke="#15414a" stroke-width="4"/>
        <rect x="-5" y="6" width="10" height="10"/><rect x="-14" y="16" width="28" height="6" rx="3"/>
      </g>
      <text x="495" y="792" font-family="Georgia, serif" font-size="36" font-weight="900" fill="#15414a">10</text>
      <text x="495" y="822" font-family="'Tajawal',Arial,sans-serif" font-size="20" font-weight="700" fill="#2a7c84">جولات</text>
      <line x1="300" y1="715" x2="300" y2="815" stroke="#d8c79c" stroke-width="2"/>
      <line x1="420" y1="715" x2="420" y2="815" stroke="#d8c79c" stroke-width="2"/>
    </g>
    <rect x="190" y="868" width="340" height="56" rx="12" fill="#15414a"/>
    <text x="360" y="905" font-family="'Tajawal',Arial,sans-serif" font-size="24" font-weight="700" fill="#f6efdd" text-anchor="middle">لعبة أسئلة للقُرّاء وأصحابهم</text>
  </g>
</svg>
